<?xml version="1.0" encoding="utf-8"?>
<!-- Generator: Adobe Illustrator 22.0.0, SVG Export Plug-In . SVG Version: 6.00 Build 0)  -->
<svg version="1.1" id="Livello_1" xmlns="http://www.w3.org/2000/svg" xmlns:xlink="http://www.w3.org/1999/xlink" x="0px" y="0px"
	 viewBox="0 0 595.3 841.9" style="enable-background:new 0 0 595.3 841.9;" xml:space="preserve">
<style type="text/css">
	.st0{fill:#FACDB7;}
	.st1{fill:#5EB98F;}
	.st2{fill:#E69F71;}
	.st3{fill:#F59D4D;}
	.st4{fill:#FFD35E;}
	.st5{fill:#97CB9D;}
	.st6{fill:#79549E;}
	.st7{fill:#F08485;}
	.st8{fill:#1E1E1C;}
</style>
<path class="st0" d="M350.6,304.9c-2.2-0.6-4.5-0.5-6.6,0.3c-1.3,0.4-0.7-0.6-1.3-4.2c-0.4-3.9-1.7-7.6-3.7-10.9
	c-4.3-6.3-18-8-22.9,1.1c-0.2,0.8,3-2,3.5-0.7c0.5,1.4-2.5,1.2-3.2,3.1c-0.1,0.1-0.2,0.2-0.3,0.3c-0.1,0.1-0.3,0.1-0.4,0.1
	c-0.1,0-0.3,0-0.4-0.1c-0.1,0-0.2-0.1-0.3-0.2c-0.7,2-1.2,4-1.6,6c-2.1,10.3-1,18.7,9.2,21.4c7,1.8,9.1,0.5,9,2.4
	c-0.1,4.5,0.5,8.9,1.8,13.2c0.2,0.6,0.9,2.2,1.5,2.2c0,0,0,0,0,0c2.1-0.3,4-1.2,5.6-2.6c1.7-6.3,5.1-5.8,5.2-6.5
	c0.2-1.2-0.8-8.3-0.9-9.7c-1.4-12.2-1.5-8.5,3.2-9.4c1.5-0.3,2.9-1.1,3.9-2.3c0.7-1-0.5-2.6-1.6-3.1L350.6,304.9z"/>
<path class="st1" d="M189.9,361.1c2.8,3.1,5.3,7.2,3.1,10.7c-0.3,0.5-0.7,1-1.1,1.5C189.8,369.5,189.1,365.3,189.9,361.1
	 M175.7,385.9c0.5-2.9-0.3-5.3,1.8-8.2c0.8-1.1,1.8-2,3-2.6c1.2-0.6,2.5-1,3.9-1c-0.2,2.6-1.1,5.1-2.6,7.2
	C180.2,383.3,178.1,385,175.7,385.9z M166.3,392.5c-1.2-4.2-2-9.2,0.9-12.8c1,2,1.4,4.3,1.3,6.5
	C168.4,388.4,167.6,390.6,166.3,392.5z M199.6,385.8c-1.8-3.6-4.2-6.9-7.1-9.6c0.1-0.1,0.2-0.3,0.2-0.5c0.4-0.7-0.5-0.2,1-2
	c4.2-5,0.6-10.5-3.8-15.2c-0.1-0.1-0.2-0.2-0.4-0.2c-0.2,0-0.3,0-0.5,0c-0.2,0-0.3,0.1-0.4,0.2c-0.1,0.1-0.2,0.2-0.2,0.4
	c-1.4,5.2-0.7,10.8,2,15.6c-2.7-2-5.8-3.3-9.1-3.7l-0.2-0.2c-0.8-2.3-2.2-4.4-3.9-6.1c-1.8-1.7-3.9-3-6.2-3.8
	c-0.4,1.4-0.3,2.9,0.2,4.3c0.5,1.4,1.4,2.6,2.5,3.5c3.3,2.7,6,2.1,4,2.4c-2.4,0.2-4.6,0.9-6.6,2.2s-3.7,3-4.8,5.1
	c-0.2,0.8-5.3,3.8-1.1,16.5c1.1,3.4,8.6-7.2,3.5-16.2c-0.1-0.1-0.1-0.2-0.2-0.3c1.5-2,3.5-3.6,5.9-4.6c2.3-1,4.9-1.2,7.4-0.8
	c-1.9,0.6-3.5,1.6-4.8,3.1s-2.1,3.2-2.5,5.1c0,2.1-0.3,4.1-0.8,6.2c-0.3,0.7,0.5,1.2,1.1,1.1c3.2-0.8,6-2.6,8.1-5.1s3.3-5.7,3.5-8.9
	c5,2.6,9,6.8,11.4,11.9c2,3.8-0.9-1.9-6.6,1.9c-2.4,1.5-4.1,4.1-6.9,5c-0.2,0.1-0.4,0.2-0.5,0.4c-0.1,0.2-0.2,0.4-0.1,0.6
	c0,0.2,0.1,0.4,0.3,0.6c0.2,0.1,0.4,0.2,0.6,0.2c3.3,0.2,6.6,0.6,9.9,0.6c4.1,0.1,3.9-2.8,5.2-4.4c0.1-0.1,0.1-0.2,0.1-0.2
	c2.1,7,2.8,14.4,2,21.7c0,0.2,0.1,0.5,0.3,0.6c0.2,0.2,0.4,0.3,0.6,0.3c0.2,0,0.5-0.1,0.6-0.3c0.2-0.2,0.3-0.4,0.3-0.6
	C204.4,405,203.4,393.3,199.6,385.8L199.6,385.8z M232.3,336.2c0.7-1.9,1.7-3.6,3-5.1c0.8,2,1,4.3,0.4,6.4c-0.6,2.1-1.8,4-3.6,5.3
	C231.6,340.5,231.7,338.3,232.3,336.2z M216.4,366.9c2.4-2.4,5.1-4.5,7.5-6.8c-2,6.9-5.8,13.5-12.6,16.3
	C211.9,372.7,213.7,369.4,216.4,366.9z M198,356.4c-1.7-3.4-2.4-7.2-3.7-10.8c8.8,6.1,11.2,7.2,13.2,18
	C202.8,362.5,200.3,361,198,356.4L198,356.4z M256.2,325.5c-0.2-1.1-2-0.7-1.7,0.5c0.3,1.6,0.2,3.2-0.2,4.7c-0.4,1.5-1.2,3-2.2,4.2
	c-4.1,5.5-11.1,7-17.8,8.2c6.6-6.4,2.3-16.7,0.6-14.5c-2.6,3.3-5,6.5-4.9,10.7c0,0.2,0.4,4.9,0.3,4.6c-4.5,0.7-8.9,2.3-12.8,4.7
	c4.7-8.4,2.3-18.3-2.9-26.6c-0.4-0.7-1.8-0.5-1.7,0.5c0.8,8.5-5.5,22.6,1.3,28c0.7,0.5,0.9-0.2-0.3,1.2c-2.4,2.9-4.1,6.4-4.9,10.1
	c-0.6-3.7-2.1-7.2-4.3-10.2c-2.2-2.7-5.2-4.5-12.1-9.3c-0.8-0.5-1.7,0.5-1.2,1.2c4.8,8.5,2.2,19,17,22.1
	c-1.4,12.8,3.9,23.2,0.2,46.5c-0.2,1.1,1.6,1.6,1.7,0.5c1.7-11.2,1.8-22.6,0.1-33.8c0.2,0,0.4,0,0.5-0.1c0.2-0.1,0.3-0.3,0.3-0.4
	c8.9-3.2,13.4-12.4,15.2-21.2c0.2-0.8-0.9-1.6-1.5-0.9c-4.9,5.9-12.7,9.5-15,17.6c-2.4-38.3,31.1-21.4,43.6-38
	c1.1-1.4,2-3.1,2.4-4.9C256.5,329.2,256.5,327.3,256.2,325.5L256.2,325.5z"/>
<path class="st2" d="M257,413.1c-0.3-1.3-1.9-0.3-10-0.6h-14.5c-5.3,0.2-3.8-2.4-5.8,11.7c-3.2,22.4-3.6,22.7-2.2,22.7
	c29.5,0.3,27.8,0,27.9-0.7C257.3,411.6,257.1,413.5,257,413.1 M217.4,441.3c-0.2,1.1-0.4,2.2-0.7,3.3c-26.1-0.4-16.4-0.2-19.2-0.3
	c0.1-6.9,0.2-19.2,0.3-30.2h25L217.4,441.3z M223.9,412.4c-29.6-0.3-27.9-0.1-27.9,0.9c-0.3,34.4-0.7,32.9,0.6,32.9
	c22.1,0.3,21.6,0.6,21.8-0.4C225,412.4,225.5,412.4,223.9,412.4z"/>
<path class="st3" d="M270.2,314.4c-1,1.4-2.3,2.5-3.8,3.4c1-2.4,1.9-4.8,2.7-7.3c0-0.2,0-0.4,0-0.6c-0.1-0.2-0.2-0.3-0.4-0.4
	c-0.2-0.1-0.4-0.1-0.6-0.1c-0.2,0-0.4,0.1-0.5,0.2c-2.2,1.9-4.5,3.6-6.9,5.1l1-6.5c0-0.2,0-0.4,0-0.6c-0.1-0.2-0.2-0.3-0.4-0.4
	c-0.2-0.1-0.4-0.1-0.6-0.1c-0.2,0-0.4,0.1-0.5,0.2c-11.8,10.1-19.3,14.4-9.5,22.7c0.9,0.7,2.2-0.5,1.3-1.3c-8.1-6.8-3-9.5,7.6-18.5
	c-1.2,7.6-2.6,10.1,6.8,2.7c-0.8,2.1-1.6,4.3-2.6,6.3c-0.3,0.6,0.2,1.6,1,1.3c1.9-0.8,3.7-1.9,5.2-3.3c-0.4,3.2-1.7,6.2-3.7,8.6
	s-4.8,4.2-7.8,5.2c-0.2,0.1-0.4,0.2-0.5,0.4c-0.1,0.2-0.1,0.5-0.1,0.7c0.1,0.2,0.2,0.4,0.4,0.5c0.2,0.1,0.5,0.1,0.7,0.1
	C273.4,328.7,273.5,310.1,270.2,314.4"/>
<path class="st1" d="M253.7,379c5-3.4,9.4-0.3,16.8-5.3c-1,2-4.4,7.4-6.9,9.1c-3.1,2.1-10.2,1.9-13.1-0.5
	C251.3,381,252.4,379.8,253.7,379 M245.5,390c-0.1,0.2,0.2-0.1-0.3-0.5c-2.1-2-3.8-4.3-5-7c-1.2-2.6-1.8-5.5-1.8-8.4
	C242.9,378.2,247.1,383.7,245.5,390L245.5,390z M288.3,347.1c-2.1,4.1-5.3,7.5-9.1,10.1c-6.4,4.5-13.6,7.1-20,11.5
	c2.7-9.2,9.8-10.1,7.7-24.2c0-2.9-2.1-2.1-1.9-0.8c0.7,4-3.2,5.3-8.8,12.6c-3,3.8-3.7,7.6,0.8,13.5c0.1,0.1,0.2,0.2,0.4,0.3
	c-4.8,3.5-8.4,8.5-10.1,14.2c-1.2-5-5.1-9.4-9-12.7c-2.9-2.5-3,11.4,5.7,19.2c0.1,0.1,0.3,0.2,0.4,0.2c0.2,0,0.3,0,0.5,0
	c0.2-0.1,0.3-0.2,0.4-0.3c0.1-0.1,0.2-0.3,0.2-0.5c-2.6,29-1.6,19.1-2,22.3c-0.1,1.2,1.7,1.1,1.8,0c0.6-4.6,1.1-24.3,4.3-28.5
	c3.3,2,7.2,2.6,11,1.9c4.5-0.7,7.1-4.3,9.4-7.9c1.5-2.1,2.7-4.5,3.5-6.9c0-0.2,0-0.4,0-0.6c-0.1-0.2-0.2-0.3-0.4-0.4
	c-0.2-0.1-0.4-0.1-0.6-0.1c-0.2,0-0.4,0.1-0.5,0.2c-7.7,7.7-13.2,2.8-19.7,7.7c6.2-9.2,18-12.4,27-18.5c4.5-2.8,8.1-6.7,10.6-11.4
	C289.3,347.7,288.8,347.4,288.3,347.1L288.3,347.1z M239.5,399.4c-0.1-2-0.3-4-0.7-6c-1-5.1-3.5-7.4-9.1-11.2
	c-0.6-0.4-1.6,0.3-1.3,1c1.4,3.5,2.8,7.1,4.3,10.5c4.7,10.2,5.6-1.3,5,17.7c0,0.2,0.1,0.5,0.3,0.6c0.2,0.2,0.4,0.3,0.6,0.3
	c0.2,0,0.5-0.1,0.6-0.3c0.2-0.2,0.3-0.4,0.3-0.6C239.6,408.3,239.7,402.6,239.5,399.4z"/>
<path class="st3" d="M250.1,362.2c-1.2,0.3-2.4,0.5-3.6,0.7c0.2-1,0.3-2.1,0.5-3.1c0.1-0.6-0.4-1.4-1.1-1.1c-1.1,0.4-2.2,0.7-3.4,1
	c0.1-1.2,0.3-2.4,0.4-3.6c0.4-3.5-11.1,4.1-7.8,10.1c1.1,1.6,2.7,2.9,4.5,3.5s3.8,0.7,5.7,0.2C248.3,368.7,252.6,362.3,250.1,362.2
	 M306,337c-0.8-1-1.4,0-5.6,1.2c0.7-1.4,1.3-2.8,1.8-4.2c0-0.2,0-0.3,0-0.5c0-0.2-0.1-0.3-0.2-0.4c-0.1-0.1-0.3-0.2-0.4-0.2
	c-0.2,0-0.3,0-0.5,0c-1.7,0.6-3.4,1.2-5,2l0.2-5c0-0.2,0-0.3-0.1-0.4c-0.1-0.1-0.2-0.2-0.3-0.3c-0.1-0.1-0.3-0.1-0.5-0.1
	c-0.2,0-0.3,0-0.5,0.1c-20.1,10.4-6.9,24.1,4.7,18.2C304.6,344.8,306.7,337.9,306,337z"/>
<path class="st4" d="M226.5,513.8c-0.2,0.3-2.8,5.5-2.9,5.7c-0.5,1-2.1,0.1-1.6-0.9l2.9-5.6c-1-0.4-2-0.5-3-0.3
	c-1,0.1-2,0.5-2.8,1.1c-1.1,0.8-1.9,1.9-2.4,3.2c-0.4,1.3-0.4,2.7,0,4c0.4,1.3,1.2,2.4,2.3,3.3c1.1,0.8,2.4,1.3,3.8,1.3
	c1.4,0,2.7-0.4,3.8-1.2c1.1-0.8,1.9-1.9,2.3-3.2c0.4-1.3,0.4-2.7,0-4C228.5,515.7,227.6,514.6,226.5,513.8 M280.7,460.1
	c10.5,9.5,25.9,23.4,32.4,29.3c-0.4-1.1-0.7-2.3-1.1-3.4c-10.1-9.2-52.5-47.4-52.8-47.7c-0.2,0.7-0.3,1.3-0.5,2
	C261.7,443,259.3,440.8,280.7,460.1z M321,504.6c-5-7.7,1.3-0.9-20.4-20.3c-53-47.5-41.5-37.1-43.1-38.6c-0.1-0.1,0-0.1-0.6,1.9
	c0.3,0.2,31.9,28.6,40.1,36c24.6,22.1,20.8,18.7,23.1,20.7L321,504.6z M411.6,513.5c-61-83.5-54.2-75.5-56.1-73.8
	c-1.5,1.4,0.4-4.3-12.3,43.8c-1.9,7.2-1.6,6.3-1.7,6.3c-0.1,0.2,0,0.5,0.1,0.7c0.1,0.2,0.3,0.4,0.5,0.4c0.2,0.1,0.5,0,0.7-0.1
	c0.2-0.1,0.4-0.3,0.4-0.5c1.7-6.4,12.4-46.9,13-49.2c0.1-0.4-0.4-0.9,4.6,5.9c56.8,77.9,49.4,65.4,48,70c1.2,0.2,5.6,1.1,6.1,1.2
	c1.2,0.2,0.8,2-0.3,1.7c-2-0.3-4-0.7-6.1-1.1c-0.1,8.9,12.8,8.7,12.8,0.2c0-1.1-0.3-2.3-0.9-3.2s-1.4-1.8-2.4-2.3
	c-1-0.6-2.1-0.8-3.3-0.8S412.6,513,411.6,513.5L411.6,513.5z M385.7,418.6c-0.9-0.9-7.4-1.2-13.9-1.2c-2.2,6-5.5,11.5-9.9,16.2
	c5.1-0.3,10-1.5,14.7-3.6C383.8,426.2,387.5,420.4,385.7,418.6z M343.3,537.1c-18.6-2.8-9.9-1.5-35.4-5.3l1.1-7.9
	c-0.2-0.1-2-0.5-1.7-0.5c-1.2,9-1.6,9.9-0.6,10c4.2,0.6,8.4,1.2,12.6,1.9c26.5,3.9,25.6,4.2,25.7,2.8c0.4-2.9,0.7-5.9,1.1-8.8
	c-0.6,0.1-1.2,0.1-1.8,0.1C343.9,532,343.6,534.5,343.3,537.1L343.3,537.1z"/>
<path class="st5" d="M385.4,380.2c2.7,1.8,5.3,3.5,8,5.3c-0.8-7.8-7.8-6.8-13.1-8.2c1.6,8,4.5,11,12.7,10.6c0.2-0.6,1.8,0.7-8.5-6.1
	C383.6,381.1,384.5,379.5,385.4,380.2"/>
<path class="st5" d="M390.5,370.3c-0.5-0.3-1.5-0.6-2.3-1.1c-0.6,2.7-1,5.9,0.7,8.1c1.8,0.5,3.3,1.5,4.4,3c-0.1-2.2-0.9-4.3-2.2-6
	c-0.8-0.8,0.5-2.1,1.3-1.3c3.2,3.3,3.1,10.9,2.7,11.7c0.1,0.9,0.2,1.9,0.2,2.8C399.8,385.1,401.5,376.2,390.5,370.3 M390.5,389.6
	c-0.5,0.8-4.9,2.5-9.5,1.8c-0.2-0.1-0.4-0.2-0.5-0.4c-0.1-0.2-0.1-0.5-0.1-0.7c0.1-0.2,0.2-0.4,0.4-0.5c0.2-0.1,0.5-0.1,0.7-0.1
	c2,0.3,4,0.1,5.9-0.5c-1.8-0.4-3.4-1.3-4.8-2.6c-0.1,0-0.2,0-0.3,0c-0.1,0-0.2-0.1-0.3-0.1c-1-0.7-1.8,0.1-8.8,3.3
	c10,8,17.2,5.4,19.8-0.1C392.1,389.7,391.3,389.7,390.5,389.6L390.5,389.6z"/>
<path class="st6" d="M354.6,374.2c1.5,2.9,3.1,5.8,4.9,8.7c4.8-3.5,9.1-7.6,12.8-12.3c-2.6-8.6-5.9-17.1-10-25.1
	C362.7,355.7,361.5,366.2,354.6,374.2 M350.5,378.2c1.2,2.7,2.8,5.3,4.7,7.6c0.7-0.5,1.6-1.1,2.7-1.8c-0.5-0.8-3.2-5.5-4.7-8.4
	C352.4,376.5,351.5,377.4,350.5,378.2z M327.7,364c5.2-6.5,7.5-15.8,11.9-23.9c0.1-1.5,0.2-1.2,0-1.1c-4,2.4-6.5,2.3-7.9-2
	c-8.2,9-13.6,24-17.4,35.6C319.5,371.1,324.1,368.1,327.7,364L327.7,364z M354.7,282.8c0.3,0.7,1,1.2,1.2,1.9
	c0.6,0.1,1.2-0.1,1.7-0.5c0.5-0.4,0.8-0.9,0.9-1.5c0.2-1.4,0.1-2.9-0.4-4.2c-0.5-1.4-1.3-2.6-2.4-3.5c-2-1.3-6.4-0.6-8.8-0.1
	C350.3,276.7,353,279.4,354.7,282.8z"/>
<path class="st6" d="M359.6,393.7c-8-9.1-8.4-10.7-10.4-14.9c-11.2,8.8-27.8,13.1-41.9,14.7c0.1,1.6,0.7,3.1,1.8,4.3
	c9.9,10.4,26.4,11.2,40.7,9.8c7.1-0.4,14.2-1.8,21-4C366.6,400.8,362.8,397.5,359.6,393.7"/>
<path class="st6" d="M328.6,387.5c16.6-5,30.7-14.5,32.7-31.7c0.9-8.1-1.1-20.2-8.9-22.5c-6.3-1.8-10.1,4.5-13.2,11.1
	c-10.2,22-7.8,25.8-36.3,33.5c-13.8,3.7-13.9,1.9-13,3.4c6.5,10.8,0.2,12.1,5.7,11.8C306.7,392.5,317.8,390.6,328.6,387.5"/>
<path class="st7" d="M310.9,437.1c-32.7,0.8-24.4,0.6-25.8,0.6c3.5,11.2,13.2,20.6,24.1,26.9c0-0.3,0-0.6,0-0.9
	c0.3-8,1.8-15.8,4.7-23.3C312.8,439.4,311.8,438.3,310.9,437.1 M310,435.7c-4.7-7.6-1.7-15.7,13.7-12.3c4.1-5.5,8.8-10.5,10.5-15.5
	c-8.8-0.7-20.9-5-25.9-11.2c-20.2,8.1-26.8,25.7-23.5,39.7c10.6-0.3,7.9-0.6,25-1L310,435.7z"/>
<path class="st7" d="M371.2,403.3c-6.9,2.3-14.1,3.7-21.4,4.2c-24,2.2-8.2-5.1-21.9,13.3c-5.7,7.7-9.7,12-13,20.9
	c-11.9,32,4.4,66.6,16.2,71.1c4.3,1.6,8.1,0.1,9.2-4.7c2.4-10.5-6.4-19.5-6.1-36.3c0.6-31.6,39.1-31.4,38.1-67.8L371.2,403.3z"/>
<path class="st1" d="M364.7,560.2c-0.2-0.1-0.5-0.1-0.7-0.1s-0.4,0.2-0.6,0.4c-4.9,6.7-5.6,7.2-4.5,7.9c1,0.6,1.1-0.2,6.1-7
	c0.1-0.2,0.2-0.5,0.1-0.7C365.1,560.5,364.9,560.3,364.7,560.2 M353.2,553.6c0.3,4.5,0.5,8.9,0.8,13.4c0.1,1.2,1.9,1.2,1.8,0
	c-0.3-4.5-0.5-8.9-0.8-13.4C355,552.4,353.2,552.4,353.2,553.6z M344.1,554.4c-0.8-0.9-2,0.4-1.3,1.3c3.3,3.6,5.5,8.1,6.5,12.9
	c0.2,1.1,2,0.7,1.7-0.5C350,563,347.6,558.3,344.1,554.4z M337.5,557.8c-0.8-0.8-2.1,0.5-1.3,1.3c3.3,3.1,5.8,7,7.3,11.4
	c0.4,1.1,2.1,0.6,1.7-0.5C343.7,565.3,341,561.2,337.5,557.8z M292.9,561.6c-0.2-0.1-0.5-0.1-0.7-0.1c-0.2,0.1-0.4,0.2-0.6,0.4
	c-1.3,1.9-5.6,9.8-3.4,10.5c0.2,0.1,0.5,0,0.7-0.1c0.2-0.1,0.4-0.3,0.4-0.5C291.1,564,294.7,562.6,292.9,561.6L292.9,561.6z
	 M286.2,557.4c-2.5,3.8-4.4,7.8-5.9,12.1c-0.4,1.1,1.4,1.6,1.7,0.5c1.4-4.1,3.3-8,5.7-11.7C288.4,557.3,286.8,556.4,286.2,557.4z
	 M279.6,554.5c-2.4,4.6-4.3,9.5-5.8,14.5c0,0.1,0,0.2,0,0.4c0,0.1,0.1,0.2,0.1,0.3c0.1,0.1,0.1,0.2,0.2,0.3c0.1,0.1,0.2,0.1,0.3,0.2
	c0.1,0,0.2,0,0.4,0c0.1,0,0.2-0.1,0.3-0.1c0.1-0.1,0.2-0.1,0.3-0.2c0.1-0.1,0.1-0.2,0.2-0.3c1.4-4.9,3.3-9.6,5.6-14
	C281.7,554.4,280.1,553.5,279.6,554.5z M163.3,556.4l0.6,12.9c0.1,1.2,1.9,1.2,1.8,0l-0.6-12.9C165,555.2,163.2,555.2,163.3,556.4
	L163.3,556.4z M153.6,554.1c-0.8-0.8-2.1,0.4-1.3,1.3c4.3,4.6,7.3,10.3,8.7,16.4c0.3,1.1,2,0.7,1.7-0.5
	C161.3,564.9,158.2,558.9,153.6,554.1L153.6,554.1z M147.5,560.8c-1-0.6-1.9,0.9-0.9,1.6c2.6,1.7,4.7,4,6.2,6.8
	c1.5,2.7,2.3,5.8,2.4,8.9c0,0.2,0.1,0.5,0.3,0.6c0.2,0.2,0.4,0.2,0.6,0.2c0.2,0,0.5-0.1,0.6-0.2c0.2-0.2,0.3-0.4,0.3-0.6
	c-0.1-3.4-1-6.8-2.7-9.7C152.7,565.3,150.4,562.7,147.5,560.8z M509.1,556.6c-7.4,4.1-13.8,9.7-18.8,16.4c-0.7,0.9,0.9,1.8,1.6,0.9
	c4.9-6.5,11-11.9,18.1-15.7C511,557.6,510.1,556,509.1,556.6z M495.3,555.7c-6.8,4.7-12.2,11.3-15.6,18.9c-0.5,1.1,1.1,2,1.6,0.9
	c3.2-7.4,8.3-13.7,14.9-18.3C497.2,556.6,496.3,555,495.3,555.7z M482.3,556.3c-4.5,5.1-7.8,11.2-9.7,17.8c0,0.2,0,0.5,0.1,0.7
	c0.1,0.2,0.3,0.3,0.5,0.4c0.2,0.1,0.5,0,0.7-0.1s0.4-0.3,0.4-0.5c1.8-6.3,5-12,9.3-17C484.3,556.7,483,555.4,482.3,556.3z"/>
<path class="st8" d="M311.6,291.1c0,0-1.6,3.9,0.6,6.1c-1.5,6.4-2.5,14.5,1.2,19.9c3.5,5.1,10.9,7,17.1,6.7c-0.1,2.4,0,4.7,0.2,7.1
	c0.1,2,0.4,3.9,0.9,5.8c0,0.1,0.1,0.2,0.1,0.4c1.4,4.3,4,4.4,7.9,2c0,0,0.1-0.1,0.1-0.1c0.1-0.8,0.3-1.7,0.5-2.5
	c-1,0.8-4,2.7-5.2,2.3c0,0-0.2-0.1-0.2-0.1c-2.7-1.5-2.7-12.7-2.5-15.8c0.1-1.8-2.5,0.2-9.5-1.7c-10.9-2.9-11.4-12.1-8.9-23.1
	c0.3-1.5,0.7-2.9,1.2-4.4c0.1,0.1,0.2,0.2,0.3,0.2c0.1,0,0.3,0.1,0.4,0.1c0.1,0,0.3-0.1,0.4-0.1c0.1-0.1,0.2-0.2,0.3-0.3
	c0.4-0.8,1.1-1.4,1.9-1.7c0.4-0.2,1.6-0.4,1.3-1.3c-0.5-1.4-2.5-0.2-3.5,0.7c4.8-9,18.3-7.1,22.7-0.7c2.3,4,3.5,8.4,3.7,12.9
	c0.1,1.2-0.2,2.7,1.1,2.3c6.6-2.2,8.9,0.5,7.5,2.7c-0.9,1-2.2,1.6-3.5,1.7c-4.7,0.9-4.1-2.3-2.7,10c0.4,3.1,0.7,6.1,0.8,9.2
	c-0.1,0.4-0.2,0.3,0.6,0c1.6-0.5,1.7,2-0.3-14.3c8.8,0.7,15.4-15.6,9.8-30.3c-8.1-21.4-41.6-15-48-0.1
	C302.7,297.1,311.6,291.1,311.6,291.1 M358.6,282.8c2.4,2.2,12.1,11.1,17.2,10.9c5.8-0.3,2.7-7.4,2.7-7.4c16,4.7,21.9-8.5,20.4-13.9
	c-1.5-5.4-4.6-2.4-4.6-2.4c-2.2,3-5.5,5-9.1,5.8c-3.6,0.8-7.4,0.3-10.7-1.5c-10.5-5.1-17.4-1-19.2,0.4
	C357.7,275.7,359.2,280.3,358.6,282.8L358.6,282.8z M475.2,520.8c-1.7-46.3-53.2-77.4-93.4-48.1c0.4,0.5,0.7,1,1.1,1.5
	c23.9-17.4,56.7-14.4,77,11c27.6,34.5,10.5,81.2-29.4,91.5c-39.8,10.3-77.8-25.4-70.4-66.4l9,1.6c-1.9,10.7-0.2,21.7,4.9,31.3
	c24.4,45.9,91.7,25.7,90.2-22.4c-1.5-37.8-43.3-62.9-76-39.2c0.4,0.5,0.7,1,1.1,1.5c31.2-22.6,71.7,1.3,73.1,37.8
	c1.4,42.3-55.6,65.4-83.4,27.1c-3.7-5.1-6.3-10.9-7.7-17c-1.4-6.1-1.6-12.5-0.5-18.7c1.2,0.2,36,6.3,37.7,6.6
	c8.3,1.5,5.7,0.9,6.2,1.1c1.1,0.2,1.6-1.5,0.5-1.7c-0.5-0.1-5.2-0.9-6.4-1.1c-0.1,0-36-6.3-37.6-6.6c1.6-7.2,4.9-13.9,9.6-19.5
	c7.1-8.4,8.1-5.5,6-8.3c-8.8,6.8-15,16.5-17.4,27.4l-9-1.6c1.9-9.1,6-17.5,12-24.6c8.9-10.6,10.2-7.1,7.9-10.1
	c-11.1,8.5-18.8,20.7-21.7,34.4c-0.9-0.2-9.7-1.7-9.8-1.7c-1.1-0.2-1.6,1.5-0.5,1.7c1.5,0.3,9.7,1.7,10,1.7
	c-9.5,54.8,55.5,93.4,98.1,54.6c6.1-5.5,11-12.2,14.2-19.8S475.5,529,475.2,520.8L475.2,520.8z M223.6,519.5
	c0.8-1.6,19.8-38.8,20.6-40.2c6.6,3.6,12.4,8.7,16.8,14.8c4.4,6.1,7.4,13.2,8.7,20.6c7.9,45.6-53.5,73.5-82.7,33.2
	c-28.4-39.2,14.4-89,55.6-69.4c-1,2-20.4,39.9-20.5,40.1C221.6,519.6,223.1,520.5,223.6,519.5L223.6,519.5z M267.7,485.1
	c27.6,34.6,10.6,81.2-29.4,91.5c-52.5,13.6-93.8-50.3-58.1-92.8c16.7-19.9,44.4-26.6,67.3-15.2l-4.2,8.1c-8.3-3.9-17.7-5.2-26.8-3.8
	c-9.1,1.4-17.6,5.5-24.4,11.7c-35.3,31.5-7.8,88.5,36.4,84.3c44.8-4.3,62.4-63.7,16.4-91.3c1.4-2.7,2.8-5.4,4.2-8.1
	C256.3,473.4,262.7,478.7,267.7,485.1L267.7,485.1z M315.4,437c-3.8,8.5-5.9,17.6-6.2,26.8c-0.2,7.5,0.8,15,2.9,22.2
	c3.4,11.8,13.6,32.4,25.1,28.5c5.3-1.8,5.6-8.8,4.8-13.4c-1.9-11.5-15.8-31.7,2.9-51.5c8.9-9.5,28.9-21.2,29.1-44.4
	c-0.6-0.3-1.2-0.5-1.8-0.8c0.5,34.4-38.1,36.1-38.7,67.5c-0.3,16.9,9,25.8,6.6,36.3c-1.1,4.8-4.7,5.9-9,4.3
	c-11.3-4.3-18.9-27.8-20-40.8c-2.8-35.7,19.1-49,24.1-63.7c-3.1-0.2-0.7-0.9-4.1,4.9c-5,8.5-10.1,12.5-14.9,22.3
	c-2.1,0.1-56.5,1.3-56.5,1.3c0.7-2.7,8.9-35.5,9.1-36.2c0-0.2,0-0.5-0.1-0.7c-0.1-0.2-0.3-0.3-0.5-0.4c-0.2-0.1-0.5,0-0.7,0.1
	c-0.2,0.1-0.4,0.3-0.4,0.5c-17.5,69.6-13.7,57.7-18.7,67.2c-10.3-5-21.9-6.7-33.2-5.1c-11.3,1.7-21.9,6.7-30.3,14.5
	c-43.3,38.7-9.7,108.7,44.9,103.5c26.5-2.6,49.4-23.3,52.9-50.1c2.8-22.3-7.6-47.1-32.6-62c4.5-8.7,3-4.2,7.9-24.1l1.4-5.5
	C308,437.3,314.2,437,315.4,437L315.4,437z"/>
<path class="st8" d="M211.5,530.3c-2,1.9-4,3.7-6,5.6c-0.2,0.2-0.2,0.4-0.2,0.6c0,0.2,0.1,0.5,0.3,0.6c0.2,0.2,0.4,0.3,0.6,0.3
	c0.2,0,0.5-0.1,0.6-0.2c6-5.7,6.9-6,6-6.8c-0.2-0.2-0.4-0.3-0.6-0.3C211.9,530,211.7,530.1,211.5,530.3 M235.4,542.1
	c0.1,0.2,0.3,0.3,0.6,0.4c0.2,0.1,0.5,0,0.7-0.1c0.2-0.1,0.4-0.3,0.4-0.5c0.1-0.2,0-0.5-0.1-0.7c-6-8.8-6.2-9.7-7.2-9.1
	c-0.2,0.1-0.4,0.3-0.4,0.6c-0.1,0.2,0,0.5,0.1,0.7C231.4,536.3,233.4,539.2,235.4,542.1z M427.7,526.5c-0.2,0.1-0.3,0.1-0.4,0.3
	c-0.1,0.1-0.2,0.3-0.2,0.5s0,0.4,0.1,0.5c0.1,0.2,0.2,0.3,0.3,0.4c4.3,1.9,4.6,4.3,5.7,3.1c0.2-0.2,0.3-0.4,0.3-0.6
	c0-0.2-0.1-0.5-0.3-0.6C431.7,528.3,428.5,526.2,427.7,526.5z M414.2,537c-0.2,6.9-3.1,8.6-1.6,9.5c2,1.2,3.4-6.7,3.5-9.5
	C416,535.8,414.2,535.8,414.2,537L414.2,537z M433.1,496.9c-2.2,3.2-4.3,6.4-6.5,9.7c-0.7,1,0.9,1.9,1.6,0.9
	c2.2-3.2,4.3-6.4,6.5-9.7C435.3,496.9,433.8,495.9,433.1,496.9z M212.1,497c-0.2-0.3-0.4-0.7-0.6-1c-0.6-1-2.2-0.1-1.6,0.9
	c2.3,3.5,4.9,7.5,5.1,7.8c0.6,1,2.2,0.1,1.6-0.9C215.1,501.6,213.6,499.3,212.1,497z M348.5,524.3c-3.6-3.1-19.2-11.6-33.3-8.7
	c-10.6,2.2-16.7,5.5-6.2,8.2c7,1.8,41.9,9.9,41.3,2.7C350.2,525.2,349.4,525.2,348.5,524.3z M191.5,452.2c2,1,0.3,0.7,43,0.6
	c5.9,0,17.7-0.1,17.4-0.1c0.2,0,0.5-0.1,0.6-0.3c0.2-0.2,0.3-0.4,0.3-0.6c0-0.2-0.1-0.5-0.3-0.6c-0.2-0.2-0.4-0.3-0.6-0.3
	c-62.1,0.2-58.1,0.3-59.1-0.1c-3.1-1.2-2.7-4.1-2.5-6.3c1.7-16.2,1.2-13.5,2-13.5c11,0.1,62.8,0.2,62.7,0.2c0.2,0,0.4-0.1,0.6-0.3
	s0.2-0.4,0.2-0.6c0-0.2-0.1-0.5-0.2-0.6s-0.4-0.3-0.6-0.3c-7.6,0-63.6-0.2-62.7-0.2c-0.5,0-0.5,1.2,0.4-6.6c4.5,0,66.7,0.2,65.4,0.2
	c0.2,0,0.5-0.1,0.6-0.3c0.2-0.2,0.3-0.4,0.3-0.6s-0.1-0.5-0.3-0.6c-0.2-0.2-0.4-0.3-0.6-0.3c-18.6,0-64-0.3-65.2-0.2
	c0.5-5.1,1.1-10.2,1.6-15.3c0.7-6.6,4.3-3.4,69.1-3.4c0.2,0,0.4-0.1,0.6-0.3c0.2-0.2,0.2-0.4,0.2-0.6c0-0.2-0.1-0.5-0.2-0.6
	c-0.2-0.2-0.4-0.3-0.6-0.3c-73.2-0.9-69.9-3.6-71.2,7.8c-4.5,42.3-4,37.7-4.1,38.2c-0.1,1.2,0.2,2.4,0.7,3.4
	C189.6,450.8,190.5,451.7,191.5,452.2z"/>
<path class="st0" d="M291,385.5c-0.6-1.3-1.3-2.4-2.3-3.5c-4.2-0.8-8.5-0.6-12.6,0.6c-10.2,3.8-10.4,14.4-4.7,10.7
	c0.9-0.6,1.7-1.3,2.3-2.2c0.5-0.8,2-0.3,1.7,0.7c-2.2,6.3,1.9,5.3,5.1,0.5c0.5-0.8,1.7-0.5,1.6,0.8c-0.3,3.5,1.4,3.6,4.3,1.4
	c3.3-2.4,1.6-2.4,4.4-2.4h0.7C291.8,389.9,291.5,387.7,291,385.5z"/>
<path class="st8" d="M329.2,306.7c-4.1,3.4-7.9,2.8-9.4,1.3c-0.9-0.8-2.1,0.5-1.3,1.3c2.2,2,6.3,2.6,10.6-0.3
	c0.1,0.9-0.1,1.8-0.5,2.6c-0.4,0.8-1.1,1.4-1.9,1.8c-1,0.5-0.1,2.1,0.9,1.6C332.5,312.5,331.4,304.9,329.2,306.7 M337.2,295.6
	c-1.6-3.8-5.5-4.7-5.4-2.9c0,0.9,0.7,0.8,1.5,1.1c1,0.5,1.8,1.3,2.2,2.3c0.1,0.2,0.2,0.4,0.4,0.5c0.2,0.1,0.5,0.1,0.7,0.1
	c0.2-0.1,0.4-0.2,0.5-0.4C337.2,296.1,337.2,295.9,337.2,295.6L337.2,295.6z M318.7,299.2c0-0.2,0-0.4-0.1-0.6
	c-0.1-0.2-0.2-0.4-0.3-0.5c-0.1-0.1-0.3-0.3-0.5-0.3c-0.2-0.1-0.4-0.1-0.6-0.1c-0.2,0-0.4,0-0.6,0.1c-0.2,0.1-0.4,0.2-0.5,0.3
	c-0.1,0.1-0.3,0.3-0.3,0.5c-0.1,0.2-0.1,0.4-0.1,0.6s0,0.4,0.1,0.6c0.1,0.2,0.2,0.4,0.3,0.5c0.1,0.1,0.3,0.3,0.5,0.3
	c0.2,0.1,0.4,0.1,0.6,0.1c0.2,0,0.4,0,0.6-0.1c0.2-0.1,0.4-0.2,0.5-0.3c0.1-0.1,0.3-0.3,0.3-0.5
	C318.6,299.6,318.7,299.4,318.7,299.2z M330.6,298.7c-0.4,0-0.8,0.2-1.1,0.6c-0.3,0.3-0.4,0.7-0.4,1.1c0,0.4,0.2,0.8,0.4,1.1
	c0.3,0.3,0.7,0.5,1.1,0.6C332.6,302.1,332.6,298.7,330.6,298.7z"/>
<path class="st5" d="M395.3,389.4c-0.1,0.1-0.3,0.1-0.4,0.1c-0.7,1.9-1.9,3.6-3.5,4.9c-1.6,1.3-3.6,2-5.6,2.3
	c-5.7,0.6-10.6-2.7-14.9-6.4c-0.1-0.1-0.2-0.2-0.2-0.3c0-0.1-0.1-0.3,0-0.4c0-0.1,0.1-0.3,0.1-0.4c0.1-0.1,0.2-0.2,0.3-0.3
	c8.6-4,8.7-4.2,9.9-4.3c-1.4-2.3-4.1-10.5-1.6-9.5c2.4,0.8,4.8,1.3,7.3,1.6c-0.8-3.3-0.7-6.8,0.6-10.1c0.6-0.7,1.6,0,1.5,0.8
	c0.2,0.1,0.4,0.2,0.6,0.3C404.3,375.2,402.2,386.7,395.3,389.4 M409.2,365.4c-7.1-8-14.4-4.5-28.5-13.6
	c-16.8-22.8-38.4-31.5-40.9-13c-0.8,6,2.5-9.6,13.1-7.4c-0.6-0.3-1.3-0.6-2-0.8c10.2,0.8,22.1,13.9,28.3,22c0,0.9-0.1,1.8-0.2,2.7
	c-4.5-4.8-17.3-18-22-21.6c1.6,1.6,2.8,3.5,3.5,5.6c7,6.5,12.2,12,18.1,18.2c-1.2,4.7-3.3,9.1-6.4,12.9c-3.7,4.7-8,8.8-12.8,12.3
	c-6-9.8-4.1-9.4-6.2-7.3c1,2,3.9,7.2,4.7,8.4c-1.1,0.8-2,1.4-2.7,1.8c-1.9-2.3-3.5-4.8-4.7-7.6c-0.5,0.4-0.9,0.8-1.4,1.2
	c1.3,2.9,3,5.6,5.2,8c5.2,6.3,12.3,14.8,19.7,17.8C393.7,413.5,424.8,382.9,409.2,365.4L409.2,365.4z"/>
<path class="st8" d="M264.1,390.4c0.5-2,2.1-2.6,2.9-1.9c0.2,0.2,0.2-0.1-0.1,0.6c-2.5,5.3,1.8,8.8,6.2,5.4
	c-0.1,0.9,0.1,1.8,0.6,2.5C271,398.9,262.5,397.2,264.1,390.4 M268.8,389.3c5.6-9.8,20.1-7.3,19.9-7.2c2.4,2.4,3,6.8,2.9,10.1H291
	c-2.8,0-1.3,0.2-4.4,2.4c-0.8,0.6-2.9,2.2-3.9,1.1c-0.7-0.9-0.3-3.4-0.4-2.6c0.1-0.2,0-0.4-0.1-0.6c-0.1-0.2-0.3-0.3-0.5-0.4
	c-0.2-0.1-0.4-0.1-0.6,0c-0.2,0.1-0.4,0.2-0.5,0.4c-0.5,0.7-1,1.4-1.6,2c-3.1,3.2-5.2,2.6-3.5-2.5c0.3-1-1.1-1.5-1.7-0.7
	C270.7,395.7,265.8,394.6,268.8,389.3L268.8,389.3z M303,377.9c13.1-3.6,22.2-5.9,28.4-15.9c7.1-11.5,10.4-31.7,21-28.7
	c7.9,2.3,9.2,14.5,8.3,22.6c-3.2,28.4-38.3,35.6-66.8,36.8c0.1-0.9,0.1-1.9,0-2.8C292.4,377,283.2,383.2,303,377.9L303,377.9z
	 M264.2,397.2c2.1,2.2,8.4,3.5,11.1,0.7c2,0.3,3.9-1.3,5.2-2.8c1.1,4.8,5.9,2.3,9.4-1.2h1.8c0.1,0.2,0.2,0.3,0.3,0.4
	c0.2,0.1,0.3,0.2,0.5,0.2c33.4-1.3,70.5-10.3,70-43.7c-0.3-20.1-13.7-24.1-20.3-15.1c0-0.1,0.1-0.2,0,0c-9.2,12.8-8.2,27.7-23.4,35
	c-9.8,4.8-31.1,8.2-31.1,9.4c-7.4-0.8-15.5,0.8-19.8,7c-2.5-1.8-6.3,0.3-5.9,5.3C262.3,394.2,263,395.9,264.2,397.2z"/>
</svg>
